<svg xmlns="http://www.w3.org/2000/svg" viewBox="0 0 400 175"><defs><style>.cls-1,.cls-7{fill:none;}.cls-1{stroke:#000;stroke-miterlimit:10;stroke-width:0.75px;opacity:0.58;}.cls-2{fill:#fa0911;}.cls-3{fill:#002065;}.cls-4{fill:#037eff;}.cls-5{fill:#ffb200;}.cls-6{font-size:40px;font-family:Consolas;letter-spacing:-0.05em;}</style></defs><title>avatar-rectangle</title><g id="Layer_1" data-name="Layer 1"><path class="cls-1" d="M13.3,68.75c-.65.43-.65.56-.65,7.94V84.2l.68.51c.68.53.86.53,9.84.53,7.8,0,9.25,0,9.81-.38s.65-.39.65-8.07c0-7.15,0-7.73-.53-8.09s-1.63-.41-9.87-.41C14.57,68.29,13.89,68.31,13.3,68.75Z"/><path class="cls-1" d="M39.31,68.68c-.41.31-.47,1.4-.47,8.06,0,7.15,0,7.73.53,8.09s1.6.41,9.75.41c8.83,0,9.25,0,9.81-.48s.59-.8.59-8.07c0-7,0-7.63-.53-8s-1.63-.41-9.9-.41C41,68.29,39.7,68.34,39.31,68.68Z"/><path class="cls-1" d="M65.37,68.55c-.5.22-.53.88-.53,8.09,0,6.81.06,7.9.47,8.22s1.68.38,9.75.38c8.89,0,9.3,0,9.87-.48s.59-.8.59-8c0-6.34-.06-7.53-.48-8s-.47-.53-9.8-.53C69.42,68.29,65.66,68.38,65.37,68.55Z"/><path class="cls-1" d="M91.19,68.53c-.27.22-.36,2.37-.36,8.23,0,7.59,0,7.95.56,8.19a92.15,92.15,0,0,0,9.69.24c7.42,0,9.25-.07,9.72-.33s.56-.76.65-7.9c.06-6.54,0-7.63-.38-8.14l-.44-.58h-9.55C94.05,68.24,91.45,68.31,91.19,68.53Z"/><path class="cls-1" d="M117.09,68.7c-.32.31-.41,1.91-.41,8.11,0,7.39,0,7.76.56,8.1s2.31.33,9.72.33a92,92,0,0,0,9.69-.24c.53-.24.56-.6.56-8.19,0-5.86-.09-8-.35-8.23s-2.87-.29-9.87-.29C118.51,68.29,117.45,68.34,117.09,68.7Z"/><path class="cls-1" d="M169,68.82c-.42.46-.48,1.65-.48,8,0,7.15,0,7.49.6,8s1,.48,9.86.48c8.07,0,9.37,0,9.75-.38s.47-1.41.47-8.22c0-7.5,0-7.87-.56-8.11a95.84,95.84,0,0,0-9.89-.24C169.47,68.29,169.44,68.29,169,68.82Z"/><path class="cls-1" d="M195,68.72c-.44.39-.5,1.31-.5,8,0,7.24,0,7.58.59,8s1,.48,9.84.48c8.59,0,9.3,0,9.75-.43s.5-1.33.5-8.12c0-6.63-.06-7.7-.47-8s-1.72-.39-9.84-.39C196.17,68.29,195.47,68.31,195,68.72Z"/><path class="cls-1" d="M221,68.68c-.41.31-.47,1.4-.47,8.06,0,7.15,0,7.73.53,8.09s1.62.41,9.86.41c8.63,0,9.34,0,9.78-.43s.5-1.33.5-8.12c0-6.63-.05-7.7-.47-8s-1.71-.39-9.86-.39S221.37,68.34,221,68.68Z"/><path class="cls-1" d="M247,68.68c-.41.31-.47,1.4-.47,8.06,0,7.15,0,7.73.53,8.09s1.6.41,9.69.41c7.8,0,9.25,0,9.81-.38s.65-.39.65-8.07c0-7.15,0-7.73-.53-8.09s-1.63-.41-9.9-.41C248.67,68.29,247.37,68.34,247,68.68Z"/><path class="cls-1" d="M273,68.55c-.5.22-.53.88-.53,8.09,0,6.81.06,7.9.47,8.22s1.68.38,9.75.38c8.89,0,9.3,0,9.86-.48s.6-.8.6-8c0-6.34-.06-7.53-.48-8s-.47-.53-9.8-.53C277.09,68.29,273.33,68.38,273,68.55Z"/><path class="cls-1" d="M299,68.55c-.5.22-.53.88-.53,8.09,0,6.81.06,7.9.48,8.22s1.68.38,9.74.38c8.9,0,9.31,0,9.87-.48s.59-.8.59-8c0-6.34-.06-7.53-.47-8s-.47-.53-9.81-.53C303.08,68.29,299.33,68.38,299,68.55Z"/><path class="cls-1" d="M324.85,68.58c-.26.22-.35,2.37-.35,8.23,0,7.59,0,8,.56,8.19a92,92,0,0,0,9.69.24c7.41,0,9.25-.07,9.72-.33s.56-.71.56-8.1c0-6.2-.09-7.8-.41-8.11s-1.42-.41-9.9-.41C327.72,68.29,325.12,68.36,324.85,68.58Z"/><path class="cls-1" d="M351,68.58c-.26.22-.35,2.37-.35,8.23,0,7.59,0,8,.56,8.19.38.15,7,.24,19.32.24,18.52,0,18.76,0,19.52-.5l.77-.49V76.72c0-7.41,0-7.54-.65-8s-1.5-.46-19.73-.46C355.94,68.29,351.22,68.36,351,68.58Z"/><path class="cls-1" d="M13.3,89.46c-.65.36-.65.39-.65,8V105l.77.49c.77.51,1.07.51,14.71.51,11.58,0,14,0,14.54-.34s.56-.75.65-7.9c.06-6.54,0-7.63-.39-8.14l-.44-.58H28.22C15.79,89.07,13.89,89.12,13.3,89.46Z"/><path class="cls-1" d="M48.94,89.41c-.26.22-.35,2.37-.35,8.24,0,7.58,0,7.94.56,8.18a94.29,94.29,0,0,0,9.9.25c9.27,0,9.3,0,9.75-.54s.47-1.64.47-8.09c0-7,0-7.55-.53-7.92s-1.63-.41-10-.41C51.78,89.12,49.21,89.19,48.94,89.41Z"/><path class="cls-1" d="M74.85,89.53c-.32.32-.41,1.92-.41,8.12,0,7.39,0,7.75.56,8.09s2.3.34,9.84.34c8.86,0,9.27,0,9.83-.49s.59-.8.59-7.94c0-6.35-.05-7.54-.47-8s-.47-.53-10-.53C76.27,89.12,75.21,89.17,74.85,89.53Z"/><path class="cls-1" d="M100.76,89.6c-.41.46-.47,1.65-.47,8,0,7.14,0,7.48.59,7.94s1,.49,9.83.49c7.54,0,9.37-.08,9.84-.34s.56-.75.65-7.9c.06-6.54,0-7.63-.38-8.14l-.45-.58h-9.6C101.23,89.07,101.2,89.07,100.76,89.6Z"/><path class="cls-1" d="M152.75,89.51c-.41.31-.47,1.4-.47,8.06,0,7.15,0,7.73.53,8.09s1.62.42,9.9.42c8.09,0,9.39,0,9.77-.39s.48-1.41.48-8.19c0-5.74-.09-7.87-.36-8.09s-2.86-.29-9.87-.29C154.46,89.12,153.13,89.17,152.75,89.51Z"/><path class="cls-1" d="M204.56,89.58c-.17.29-.29,3.29-.29,8.09,0,7,0,7.63.53,8s1.63.42,9.87.42c8.62,0,9.33,0,9.78-.44s.5-1.33.5-8.11-.06-7.71-.48-8-1.71-.39-10-.39C205.3,89.12,204.86,89.14,204.56,89.58Z"/><path class="cls-1" d="M256.61,89.41c-.26.22-.35,2.37-.35,8.24,0,7.58,0,7.94.56,8.18a94.29,94.29,0,0,0,9.9.25c9.27,0,9.3,0,9.75-.54s.47-1.64.47-8.09c0-7,0-7.55-.53-7.92s-1.63-.41-10-.41C259.45,89.12,256.88,89.19,256.61,89.41Z"/><path class="cls-1" d="M282.4,89.65c-.41.51-.44,1.6-.38,8.14.09,7.15.12,7.56.65,7.9s2.3.34,9.84.34c8.86,0,9.27,0,9.83-.49s.59-.8.59-7.94c0-6.35-.05-7.54-.47-8s-.47-.53-10-.53h-9.6Z"/><path class="cls-1" d="M308.43,89.65c-.41.46-.47,1.65-.47,8,0,7.14,0,7.48.59,7.94s1,.49,9.83.49c7.54,0,9.37-.08,9.84-.34s.56-.7.56-8.09c0-6.2-.09-7.8-.41-8.12s-1.42-.41-10-.41C308.9,89.12,308.87,89.12,308.43,89.65Z"/><path class="cls-1" d="M334.42,89.65c-.41.46-.47,1.65-.47,8,0,7.14,0,7.48.59,7.94s1,.49,9.78.49a91.11,91.11,0,0,0,9.75-.25c.53-.24.56-.6.56-8.18,0-5.87-.09-8-.35-8.24s-2.87-.29-9.87-.29C334.9,89.12,334.87,89.12,334.42,89.65Z"/><path class="cls-1" d="M360.49,89.65c-.41.51-.44,1.6-.38,8.14.09,7.15.12,7.56.65,7.9s2.95.34,14.53.34c13.65,0,13.95,0,14.71-.51l.77-.49v-7.6c0-7.58,0-7.61-.65-8s-2.48-.39-14.92-.39H360.94Z"/><path class="cls-1" d="M13.3,110.34c-.65.36-.65.39-.65,8v7.61l.77.48c.77.51,1,.51,18.61.51s17.85,0,18.44-.49.59-.79.59-8.06c0-7,0-7.63-.53-8S48.31,110,32,110C16.14,110,13.89,110,13.3,110.34Z"/><path class="cls-1" d="M82.62,110.24c-.26.22-.35,2.35-.35,8.09,0,6.79.06,7.88.47,8.19s1.68.39,9.75.39c8.89,0,9.3,0,9.86-.49s.59-.79.59-7.94c0-6.35,0-7.53-.47-8s-.47-.54-10-.54C85.49,110,82.89,110,82.62,110.24Z"/><path class="cls-1" d="M108.62,110.24c-.27.22-.36,2.38-.36,8.24,0,7.58,0,7.94.56,8.19a95.53,95.53,0,0,0,9.69.24c7.42,0,9.25-.07,9.72-.34s.56-.7.56-8.09c0-6.2-.09-7.8-.41-8.12s-1.42-.41-9.9-.41C111.48,110,108.88,110,108.62,110.24Z"/><path class="cls-1" d="M212.42,110.34c-.41.31-.47,1.41-.47,8.09,0,7.7,0,7.73.65,8.09s2,.39,9.69.39,9.13,0,9.69-.39.65-.39.65-8.09c0-6.68-.06-7.78-.47-8.09s-1.72-.39-9.87-.39S212.81,110,212.42,110.34Z"/><path class="cls-1" d="M238.42,110.34c-.42.31-.47,1.41-.47,8.09,0,7.7,0,7.73.64,8.09s2,.39,9.69.39,9.13,0,9.69-.39.65-.39.65-8.09c0-6.68-.06-7.78-.47-8.09s-1.71-.39-9.87-.39S238.8,110,238.42,110.34Z"/><path class="cls-1" d="M290.29,110.24c-.27.22-.35,2.35-.35,8.07,0,7.24,0,7.82.53,8.19s1.59.41,9.75.41c8.83,0,9.24,0,9.8-.49s.59-.79.59-7.94c0-6.35-.05-7.53-.47-8s-.47-.54-10-.54C293.16,110,290.56,110,290.29,110.24Z"/><path class="cls-1" d="M316.29,110.24c-.27.22-.36,2.38-.36,8.24,0,7.58,0,7.94.56,8.19a95.53,95.53,0,0,0,9.69.24c7.42,0,9.25-.07,9.72-.34s.56-.7.56-8.09c0-6.2-.09-7.8-.41-8.12s-1.42-.41-9.9-.41C319.15,110,316.55,110,316.29,110.24Z"/><path class="cls-1" d="M342.3,110.36c-.33.32-.42,1.87-.42,7.68,0,4,.09,7.59.21,7.92a1.36,1.36,0,0,0,.89.8c.38.08,10.93.15,23.45.15,22.6,0,22.81,0,23.57-.51l.77-.48v-7.61c0-7.58,0-7.61-.65-8s-3.36-.39-24-.39C344.69,110,342.65,110,342.3,110.36Z"/><path class="cls-1" d="M13.05,131.41c-.44.39-.5,1.31-.5,8,0,7,0,7.54.53,7.9s2.48.41,22.31.41H57.13l.44-.53c.71-.8.71-14.85,0-15.65l-.44-.53H35.33C14.59,131,13.5,131,13.05,131.41Z"/><path class="cls-1" d="M63.72,131.32c-.51.41-.51,15.72,0,16.13.26.22,2.86.29,9.86.29,8.48,0,9.54-.05,9.9-.41s.41-1.89.41-8-.09-7.63-.41-7.94-1.42-.41-9.9-.41C66.58,131,64,131.1,63.72,131.32Z"/><path class="cls-1" d="M89.62,131.44c-.32.31-.41,1.89-.41,7.94s.09,7.63.41,8,1.42.41,9.9.41c7,0,9.6-.07,9.86-.29.51-.41.51-15.72,0-16.13-.26-.22-2.86-.29-9.86-.29C91,131,90,131.08,89.62,131.44Z"/><path class="cls-1" d="M115.35,131.61a54.48,54.48,0,0,0-.29,7.72,54.56,54.56,0,0,0,.29,7.73l.3.63h9.69c7.15,0,9.77-.07,10-.29.5-.41.5-15.72,0-16.13-.27-.22-2.89-.29-10-.29h-9.69Z"/><path class="cls-1" d="M167.34,131.49c-.17.29-.29,3.24-.29,7.89s.12,7.61.29,7.9c.3.44.74.46,10,.46,7.15,0,9.78-.07,10-.29.5-.41.5-15.72,0-16.13-.26-.22-2.89-.29-10-.29C168.08,131,167.64,131.05,167.34,131.49Z"/><path class="cls-1" d="M143,68.82c-.41.51-.44,1.6-.38,8.14.09,7.14.12,7.56.65,7.9s2.3.33,9.72.33a92.15,92.15,0,0,0,9.69-.24c.53-.24.56-.6.56-8.19,0-5.86-.09-8-.36-8.23s-2.86-.29-9.89-.29h-9.54Z"/><path class="cls-1" d="M126.78,89.56c-.44.38-.5,1.3-.5,7.94,0,6.4.06,7.58.47,8s.48.54,9.75.54a94.13,94.13,0,0,0,9.9-.25c.53-.24.56-.6.56-8.18,0-5.87-.09-8-.35-8.24s-2.87-.29-9.84-.29C127.94,89.12,127.23,89.14,126.78,89.56Z"/><path class="cls-1" d="M178.75,89.51c-.42.31-.48,1.4-.48,8.06,0,7.15,0,7.73.53,8.09s1.63.42,9.87.42c8.63,0,9.34,0,9.78-.44s.5-1.31.5-8c0-4.75-.12-7.75-.29-8s-.74-.46-9.9-.46C180.46,89.12,179.13,89.17,178.75,89.51Z"/><path class="cls-1" d="M134.52,110.36c-.32.32-.41,1.92-.41,8.12,0,7.39,0,7.75.56,8.09s2.31.34,9.72.34a95.37,95.37,0,0,0,9.69-.24c.53-.25.56-.61.56-8.19,0-5.86-.09-8-.35-8.24s-2.87-.29-9.87-.29C135.94,110,134.88,110,134.52,110.36Z"/><path class="cls-1" d="M160.43,110.49c-.41.46-.47,1.64-.47,8,0,7.15,0,7.48.59,7.94s1,.49,9.84.49c8.59,0,9.3,0,9.74-.44s.51-1.33.51-8.18c0-5.72-.09-7.83-.36-8.05s-2.86-.29-9.86-.29C160.9,110,160.87,110,160.43,110.49Z"/><path class="cls-1" d="M141.35,131.49c-.18.29-.3,3.24-.3,7.89s.12,7.61.3,7.9c.29.44.74.46,10,.46,7.15,0,9.78-.07,10-.29.5-.41.5-15.72,0-16.13-.27-.22-2.9-.29-10-.29C142.09,131,141.64,131.05,141.35,131.49Z"/><path class="cls-1" d="M193.34,131.49c-.18.29-.3,3.24-.3,7.89s.12,7.61.3,7.9c.29.44.74.46,10,.46s9.75,0,10.05-.46c.41-.65.41-15.14,0-15.79-.3-.44-.74-.46-10.05-.46S193.63,131.05,193.34,131.49Z"/><path class="cls-1" d="M219.39,131.32c-.26.22-.35,2.35-.35,8.06s.09,7.85.35,8.07,2.9.29,10.05.29c9.24,0,9.69,0,10-.46.42-.65.42-15.14,0-15.79-.29-.44-.74-.46-10-.46C222.29,131,219.66,131.1,219.39,131.32Z"/><path class="cls-1" d="M245.39,131.32c-.27.22-.36,2.35-.36,8.06s.09,7.85.36,8.07,2.89.29,10,.29c9.25,0,9.69,0,10-.46.41-.65.41-15.14,0-15.79-.3-.44-.74-.46-10-.46C248.28,131,245.66,131.1,245.39,131.32Z"/><path class="cls-1" d="M271.38,131.32c-.26.22-.35,2.35-.35,8.06s.09,7.85.35,8.07,2.87.29,9.87.29c9.51,0,9.54,0,10-.53s.47-1.62.47-7.83-.06-7.36-.47-7.82-.48-.53-10-.53C274.25,131,271.65,131.1,271.38,131.32Z"/><path class="cls-1" d="M297.38,131.32c-.27.22-.35,2.35-.35,8.06s.08,7.85.35,8.07,2.87.29,9.87.29c8.48,0,9.54-.05,9.89-.41s.42-1.89.42-8-.09-7.63-.42-7.94-1.41-.41-9.89-.41C300.25,131,297.65,131.1,297.38,131.32Z"/><path class="cls-1" d="M323.29,131.44c-.33.31-.42,1.89-.42,7.94s.09,7.63.42,8,3.07.41,33.41.41c31.58,0,33,0,33.47-.43s.5-1.31.5-8c0-7,0-7.54-.53-7.9s-3.25-.41-33.5-.41S323.64,131.05,323.29,131.44Z"/><path class="cls-1" d="M13.3,152.12c-.65.56-.65.71-.65,7.95v7.41l.68.51c.68.53.71.53,14.71.53,11.67,0,14.13,0,14.63-.33s.56-.71.56-8.14,0-7.8-.56-8.14-3-.34-14.65-.34H13.92Z"/><path class="cls-1" d="M49.12,151.88c-.5.22-.53.88-.53,8.22,0,7.63,0,8,.56,8.23a96.11,96.11,0,0,0,9.9.24c9.27,0,9.3,0,9.75-.53s.47-1.65.47-8c0-7.15,0-7.49-.59-8s-1-.48-9.81-.48C53.14,151.62,49.42,151.71,49.12,151.88Z"/><path class="cls-1" d="M75.12,151.88c-.5.22-.53.88-.53,8.22,0,7.63,0,8,.56,8.23.38.15,5.49.24,14.62.24,12.35,0,14.06,0,14.47-.38s.48-1.41.48-8.09-.06-7.78-.48-8.1-2.12-.38-14.53-.38C80.7,151.62,75.44,151.71,75.12,151.88Z"/><path class="cls-1" d="M110.63,152.05c-.57.46-.6.8-.6,8s0,7.53.6,8,1,.48,83.86.48H277.8l.44-.53c.41-.46.47-1.65.47-8,0-7.15,0-7.49-.59-7.95s-1-.48-83.75-.48S111.22,151.57,110.63,152.05Z"/><path class="cls-1" d="M282.79,151.88c-.5.22-.53.88-.53,8.17,0,5.86.08,8,.35,8.23s2.87.29,9.87.29c8.47,0,9.54,0,9.89-.41s.42-1.91.42-8.11c0-7.39,0-7.75-.56-8.09s-2.31-.34-9.75-.34C286.78,151.62,283.08,151.71,282.79,151.88Z"/><path class="cls-1" d="M308.67,152c-.54.34-.57.7-.57,8.09,0,6.2.09,7.8.42,8.11s1.42.41,9.89.41c7,0,9.6-.07,9.87-.29s.35-2.37.35-8.23c0-7.58,0-8-.56-8.19a91.85,91.85,0,0,0-9.69-.24C311,151.62,309.14,151.69,308.67,152Z"/><path class="cls-1" d="M334.66,152c-.53.34-.56.7-.56,8.14s0,7.8.56,8.13,3,.34,14.68.34c12.44,0,14.15,0,14.57-.38s.47-1.41.47-8.07c0-7.15,0-7.73-.53-8.09s-2-.41-14.57-.41C337.61,151.62,335.16,151.67,334.66,152Z"/><path class="cls-1" d="M370.3,152.05c-.44.39-.5,1.34-.5,8.09,0,7.08,0,7.66.53,8s1.63.41,9.87.41c8.65,0,9.33,0,9.92-.46s.65-.55.65-7.94v-7.51l-.68-.51c-.68-.53-.85-.53-10-.53C371.45,151.62,370.74,151.64,370.3,152.05Z"/></g><g id="ialh"><path class="cls-2" d="M230.62,89.41c-.27.22-.36,2.35-.36,8.09,0,6.78.06,7.87.48,8.19s1.71.39,9.83.39c8.72,0,9.43,0,9.87-.44s.5-1.33.5-8.11-.06-7.71-.47-8-1.71-.39-10-.39C233.48,89.12,230.88,89.19,230.62,89.41Z"/><path class="cls-3" d="M56.63,110.24c-.27.22-.36,2.35-.36,8.07,0,7.24,0,7.82.53,8.19s1.6.41,9.75.41c8.83,0,9.25,0,9.81-.49s.59-.79.59-7.94c0-6.35-.06-7.53-.47-8s-.48-.54-10-.54C59.49,110,56.89,110,56.63,110.24Z"/><path class="cls-4" d="M264.3,110.24c-.27.22-.36,2.35-.36,8.09,0,7.8,0,7.83.65,8.19s2,.39,9.75.39c8.71,0,9.13,0,9.69-.49s.59-.79.59-8.06c0-7,0-7.63-.53-8s-1.63-.41-10-.41C267.13,110,264.56,110,264.3,110.24Z"/><path class="cls-5" d="M186.43,110.49c-.42.46-.48,1.64-.48,8,0,7.15,0,7.48.59,7.94s1,.49,9.84.49c8.6,0,9.31,0,9.75-.44s.5-1.33.5-8.18c0-5.72-.09-7.83-.35-8.05s-2.87-.29-9.87-.29C186.9,110,186.87,110,186.43,110.49Z"/></g><g id="text"><text class="cls-6" transform="translate(7.64 36.43)">data science studio</text><rect class="cls-7" width="400" height="175"/></g></svg>