<svg xmlns="http://www.w3.org/2000/svg" viewBox="0 0 400 400"><defs><style>.cls-1{fill:none;stroke:#000;stroke-miterlimit:10;stroke-width:0.75px;opacity:0.58;}.cls-2{fill:#fa0911;}.cls-3{fill:#002065;}.cls-4{fill:#037eff;}.cls-5{fill:#ffb200;}.cls-6{font-size:37.4px;}.cls-6,.cls-7{font-family:Consolas;}.cls-7{font-size:29.92px;fill:#231f20;}</style></defs><title>dss-logo-url</title><g id="Layer_1" data-name="Layer 1"><path class="cls-1" d="M8.35,167.32c-.66.45-.66.57-.66,8.14v7.69l.69.52c.7.55.88.55,10.08.55,8,0,9.47-.05,10-.4s.67-.39.67-8.26c0-7.32,0-7.91-.55-8.29s-1.66-.42-10.1-.42C9.65,166.85,9,166.88,8.35,167.32Z"/><path class="cls-1" d="M35,167.25c-.42.32-.48,1.44-.48,8.26,0,7.32,0,7.92.54,8.29s1.64.42,10,.42c9.05,0,9.47,0,10-.5s.61-.81.61-8.26c0-7.22,0-7.81-.54-8.19s-1.67-.42-10.14-.42C36.72,166.85,35.39,166.9,35,167.25Z"/><path class="cls-1" d="M61.68,167.12c-.51.23-.54.9-.54,8.29,0,7,.06,8.09.48,8.41s1.73.4,10,.4c9.1,0,9.53,0,10.1-.5s.61-.81.61-8.13c0-6.51-.06-7.72-.49-8.19s-.48-.55-10-.55C65.83,166.85,62,167,61.68,167.12Z"/><path class="cls-1" d="M88.13,167.1c-.28.22-.37,2.43-.37,8.43,0,7.77,0,8.14.58,8.39a94.53,94.53,0,0,0,9.92.25c7.6,0,9.47-.08,10-.35s.57-.77.66-8.09c.06-6.7,0-7.81-.39-8.33l-.45-.6H98.26C91.06,166.8,88.4,166.88,88.13,167.1Z"/><path class="cls-1" d="M114.66,167.27c-.33.33-.42,2-.42,8.32,0,7.56,0,7.94.57,8.28s2.36.35,10,.35a94.53,94.53,0,0,0,9.92-.25c.55-.25.58-.62.58-8.38,0-6-.09-8.22-.36-8.44s-2.94-.3-10.11-.3C116.12,166.85,115,166.9,114.66,167.27Z"/><path class="cls-1" d="M167.83,167.4c-.43.47-.49,1.68-.49,8.19,0,7.32,0,7.66.61,8.13s1,.5,10.1.5c8.26,0,9.6-.05,10-.4s.48-1.44.48-8.41c0-7.69,0-8.06-.57-8.31a98.94,98.94,0,0,0-10.14-.25C168.31,166.85,168.28,166.85,167.83,167.4Z"/><path class="cls-1" d="M194.48,167.3c-.45.4-.51,1.34-.51,8.19,0,7.42,0,7.76.6,8.23s1,.5,10.08.5c8.81,0,9.53,0,10-.45s.51-1.36.51-8.31-.06-7.89-.48-8.21-1.76-.4-10.08-.4C195.66,166.85,194.94,166.88,194.48,167.3Z"/><path class="cls-1" d="M221.08,167.25c-.42.32-.48,1.44-.48,8.26,0,7.32,0,7.92.54,8.29s1.67.42,10.11.42c8.83,0,9.56,0,10-.45s.52-1.36.52-8.31-.06-7.89-.49-8.21-1.75-.4-10.1-.4S221.47,166.9,221.08,167.25Z"/><path class="cls-1" d="M247.71,167.25c-.43.32-.49,1.44-.49,8.26,0,7.32,0,7.92.55,8.29s1.63.42,9.92.42c8,0,9.47-.05,10.05-.4s.66-.39.66-8.26c0-7.32,0-7.91-.54-8.29s-1.66-.42-10.14-.42C249.43,166.85,248.1,166.9,247.71,167.25Z"/><path class="cls-1" d="M274.39,167.12c-.51.23-.54.9-.54,8.29,0,7,.06,8.09.48,8.41s1.73.4,10,.4c9.11,0,9.53,0,10.11-.5s.6-.81.6-8.13c0-6.51-.06-7.72-.48-8.19s-.49-.55-10.05-.55C278.54,166.85,274.7,167,274.39,167.12Z"/><path class="cls-1" d="M301,167.12c-.51.23-.54.9-.54,8.29,0,7,.06,8.09.48,8.41s1.73.4,10,.4c9.1,0,9.53,0,10.1-.5s.61-.81.61-8.13c0-6.51-.06-7.72-.49-8.19s-.48-.55-10-.55C305.17,166.85,301.32,167,301,167.12Z"/><path class="cls-1" d="M327.47,167.15c-.27.22-.37,2.43-.37,8.44,0,7.76,0,8.13.58,8.38a94.53,94.53,0,0,0,9.92.25c7.6,0,9.47-.07,10-.35s.57-.72.57-8.28c0-6.36-.09-8-.42-8.32s-1.45-.42-10.14-.42C330.4,166.85,327.74,166.93,327.47,167.15Z"/><path class="cls-1" d="M354.2,167.15c-.27.22-.36,2.43-.36,8.44,0,7.76,0,8.13.57,8.38s7.14.25,19.79.25c19,0,19.21,0,20-.52l.79-.5v-7.71c0-7.6,0-7.72-.67-8.17s-1.54-.47-20.21-.47C359.31,166.85,354.47,166.93,354.2,167.15Z"/><path class="cls-1" d="M8.35,188.54c-.66.37-.66.39-.66,8.16v7.79l.78.5c.79.52,1.09.52,15.07.52,11.86,0,14.37,0,14.89-.35s.57-.77.66-8.09c.06-6.7,0-7.81-.39-8.34l-.45-.59H23.63C10.89,188.14,9,188.19,8.35,188.54Z"/><path class="cls-1" d="M44.86,188.49c-.27.22-.37,2.43-.37,8.43,0,7.77,0,8.14.58,8.39a98.63,98.63,0,0,0,10.14.25c9.5,0,9.53,0,10-.55s.49-1.68.49-8.28c0-7.15,0-7.75-.55-8.12s-1.66-.42-10.23-.42C47.76,188.19,45.13,188.26,44.86,188.49Z"/><path class="cls-1" d="M71.39,188.61c-.33.32-.42,2-.42,8.31,0,7.57,0,7.94.58,8.29s2.36.35,10.07.35c9.08,0,9.5,0,10.08-.5s.6-.82.6-8.14c0-6.5-.06-7.71-.48-8.18s-.49-.55-10.23-.55C72.85,188.19,71.76,188.24,71.39,188.61Z"/><path class="cls-1" d="M97.93,188.69c-.42.47-.48,1.68-.48,8.18,0,7.32,0,7.67.6,8.14s1,.5,10.08.5c7.71,0,9.59-.08,10.07-.35s.58-.77.67-8.09c.06-6.7,0-7.81-.39-8.34l-.46-.59h-9.83C98.41,188.14,98.38,188.14,97.93,188.69Z"/><path class="cls-1" d="M151.18,188.59c-.42.32-.48,1.44-.48,8.26,0,7.32,0,7.91.54,8.29s1.67.42,10.14.42c8.29,0,9.62-.05,10-.4s.48-1.44.48-8.38c0-5.89-.09-8.07-.36-8.29s-2.94-.3-10.11-.3C152.94,188.19,151.58,188.24,151.18,188.59Z"/><path class="cls-1" d="M204.26,188.66c-.18.3-.31,3.38-.31,8.29,0,7.22,0,7.81.55,8.19s1.66.42,10.11.42c8.83,0,9.56,0,10-.45s.51-1.36.51-8.31-.06-7.89-.48-8.21-1.75-.4-10.26-.4C205,188.19,204.56,188.22,204.26,188.66Z"/><path class="cls-1" d="M257.57,188.49c-.27.22-.36,2.43-.36,8.43,0,7.77,0,8.14.57,8.39a98.94,98.94,0,0,0,10.14.25c9.5,0,9.53,0,10-.55s.49-1.68.49-8.28c0-7.15,0-7.75-.55-8.12s-1.66-.42-10.22-.42C260.48,188.19,257.84,188.26,257.57,188.49Z"/><path class="cls-1" d="M284,188.73c-.43.53-.46,1.64-.4,8.34.09,7.32.12,7.74.67,8.09s2.36.35,10.07.35c9.08,0,9.51,0,10.08-.5s.61-.82.61-8.14c0-6.5-.06-7.71-.49-8.18s-.48-.55-10.26-.55h-9.83Z"/><path class="cls-1" d="M310.64,188.74c-.42.47-.48,1.68-.48,8.18,0,7.32,0,7.67.61,8.14s1,.5,10.07.5c7.72,0,9.59-.08,10.08-.35s.57-.72.57-8.29c0-6.35-.09-8-.42-8.31s-1.45-.42-10.2-.42C311.13,188.19,311.1,188.19,310.64,188.74Z"/><path class="cls-1" d="M337.27,188.74c-.42.47-.48,1.68-.48,8.18,0,7.32,0,7.67.6,8.14s1,.5,10,.5a95.26,95.26,0,0,0,10-.25c.55-.25.58-.62.58-8.39,0-6-.09-8.21-.37-8.43s-2.93-.3-10.1-.3C337.76,188.19,337.72,188.19,337.27,188.74Z"/><path class="cls-1" d="M364,188.73c-.42.53-.45,1.64-.39,8.34.09,7.32.12,7.74.67,8.09s3,.35,14.88.35c14,0,14.28,0,15.07-.52l.79-.5V196.7c0-7.77,0-7.79-.67-8.16s-2.54-.4-15.28-.4H364.43Z"/><path class="cls-1" d="M8.35,209.93c-.66.37-.66.39-.66,8.16v7.79l.78.5c.79.52,1.06.52,19.06.52s18.28,0,18.89-.5.6-.82.6-8.26c0-7.22,0-7.82-.54-8.19s-2.27-.42-19-.42C11.26,209.53,9,209.58,8.35,209.93Z"/><path class="cls-1" d="M79.35,209.83c-.27.22-.36,2.4-.36,8.28,0,6.95.06,8.07.48,8.39s1.73.4,10,.4c9.11,0,9.53,0,10.1-.5s.61-.82.61-8.14c0-6.5-.06-7.71-.48-8.19s-.49-.54-10.23-.54C82.29,209.53,79.62,209.6,79.35,209.83Z"/><path class="cls-1" d="M106,209.83c-.27.22-.36,2.43-.36,8.43,0,7.77,0,8.14.57,8.39a94.8,94.8,0,0,0,9.93.25c7.59,0,9.47-.08,9.95-.35s.58-.72.58-8.29c0-6.35-.1-8-.43-8.31s-1.45-.42-10.13-.42C108.91,209.53,106.25,209.6,106,209.83Z"/><path class="cls-1" d="M212.31,209.93c-.43.32-.49,1.43-.49,8.28,0,7.89,0,7.92.67,8.29s2,.4,9.92.4,9.35-.05,9.93-.4.66-.4.66-8.29c0-6.85-.06-8-.48-8.28s-1.76-.4-10.11-.4S212.7,209.58,212.31,209.93Z"/><path class="cls-1" d="M238.93,209.93c-.42.32-.48,1.43-.48,8.28,0,7.89,0,7.92.66,8.29s2.06.4,9.93.4,9.35-.05,9.92-.4.67-.4.67-8.29c0-6.85-.06-8-.49-8.28s-1.75-.4-10.1-.4S239.33,209.58,238.93,209.93Z"/><path class="cls-1" d="M292.07,209.83c-.28.22-.37,2.4-.37,8.26,0,7.42,0,8,.55,8.39s1.63.42,10,.42c9,0,9.47,0,10-.5s.6-.82.6-8.14c0-6.5-.06-7.71-.48-8.19s-.49-.54-10.23-.54C295,209.53,292.34,209.6,292.07,209.83Z"/><path class="cls-1" d="M318.69,209.83c-.27.22-.36,2.43-.36,8.43,0,7.77,0,8.14.57,8.39a95,95,0,0,0,9.93.25c7.59,0,9.47-.08,9.95-.35s.58-.72.58-8.29c0-6.35-.09-8-.42-8.31s-1.46-.42-10.14-.42C321.63,209.53,319,209.6,318.69,209.83Z"/><path class="cls-1" d="M345.33,210c-.33.32-.42,1.91-.42,7.87,0,4.11.09,7.76.21,8.11a1.45,1.45,0,0,0,.91.82c.39.07,11.2.15,24,.15,23.14,0,23.35,0,24.14-.52l.79-.5v-7.79c0-7.77,0-7.79-.67-8.16s-3.45-.4-24.63-.4C347.79,209.53,345.7,209.55,345.33,210Z"/><path class="cls-1" d="M8.09,231.51c-.45.4-.51,1.34-.51,8.16,0,7.15,0,7.72.54,8.09s2.55.42,22.85.42H53.24l.45-.54c.73-.82.73-15.21,0-16l-.45-.55H30.91C9.67,231.06,8.55,231.09,8.09,231.51Z"/><path class="cls-1" d="M60,231.41c-.52.42-.52,16.11,0,16.53.27.22,2.93.3,10.1.3,8.69,0,9.78-.05,10.14-.43s.42-1.93.42-8.13-.09-7.82-.42-8.14-1.45-.42-10.14-.42C62.92,231.12,60.26,231.19,60,231.41Z"/><path class="cls-1" d="M86.52,231.54c-.33.32-.42,1.93-.42,8.14s.09,7.81.42,8.13,1.46.43,10.14.43c7.17,0,9.83-.08,10.11-.3.51-.42.51-16.11,0-16.53-.28-.22-2.94-.29-10.11-.29C88,231.12,86.89,231.16,86.52,231.54Z"/><path class="cls-1" d="M112.88,231.71a56.36,56.36,0,0,0-.3,7.91,56.44,56.44,0,0,0,.3,7.92l.3.64h9.92c7.33,0,10-.07,10.29-.29.52-.42.52-16.11,0-16.53-.27-.22-3-.3-10.29-.3h-9.92Z"/><path class="cls-1" d="M166.13,231.59c-.18.29-.3,3.32-.3,8.09s.12,7.79.3,8.08c.3.45.76.48,10.23.48,7.32,0,10-.08,10.29-.3.51-.42.51-16.11,0-16.53-.28-.22-3-.29-10.29-.29C166.89,231.12,166.43,231.14,166.13,231.59Z"/><path class="cls-1" d="M141.17,167.4c-.42.52-.45,1.63-.39,8.33.09,7.32.12,7.74.66,8.09s2.36.35,10,.35a94.53,94.53,0,0,0,9.92-.25c.55-.25.58-.62.58-8.39,0-6-.1-8.21-.37-8.43s-2.93-.3-10.13-.3h-9.78Z"/><path class="cls-1" d="M124.59,188.64c-.46.39-.52,1.34-.52,8.14,0,6.55.06,7.76.49,8.23s.48.55,10,.55a98.78,98.78,0,0,0,10.14-.25c.54-.25.57-.62.57-8.39,0-6-.09-8.21-.36-8.43s-2.93-.3-10.08-.3C125.77,188.19,125,188.22,124.59,188.64Z"/><path class="cls-1" d="M177.81,188.59c-.42.32-.48,1.44-.48,8.26,0,7.32,0,7.91.54,8.29s1.67.42,10.11.42c8.83,0,9.56,0,10-.45s.52-1.34.52-8.21c0-4.86-.12-7.94-.3-8.24s-.76-.47-10.14-.47C179.57,188.19,178.2,188.24,177.81,188.59Z"/><path class="cls-1" d="M132.52,210c-.34.32-.43,2-.43,8.31,0,7.57,0,7.94.58,8.29s2.36.35,10,.35a95,95,0,0,0,9.93-.25c.54-.25.57-.62.57-8.39,0-6-.09-8.21-.36-8.43s-2.94-.3-10.11-.3C134,209.53,132.88,209.58,132.52,210Z"/><path class="cls-1" d="M159.05,210.07c-.42.48-.48,1.69-.48,8.19,0,7.32,0,7.67.6,8.14s1,.5,10.08.5c8.8,0,9.53,0,10-.45s.52-1.36.52-8.39c0-5.85-.09-8-.37-8.23s-2.93-.3-10.1-.3C159.54,209.53,159.51,209.53,159.05,210.07Z"/><path class="cls-1" d="M139.5,231.59c-.18.29-.3,3.32-.3,8.09s.12,7.79.3,8.08c.31.45.76.48,10.23.48,7.32,0,10-.08,10.29-.3.51-.42.51-16.11,0-16.53-.27-.22-3-.29-10.29-.29C140.26,231.12,139.81,231.14,139.5,231.59Z"/><path class="cls-1" d="M192.76,231.59c-.18.29-.3,3.32-.3,8.09s.12,7.79.3,8.08c.3.45.76.48,10.29.48s10,0,10.28-.48c.43-.67.43-15.5,0-16.17-.3-.45-.75-.47-10.28-.47S193.06,231.14,192.76,231.59Z"/><path class="cls-1" d="M219.45,231.41c-.28.23-.37,2.41-.37,8.27s.09,8,.37,8.26,3,.3,10.28.3c9.47,0,9.93,0,10.23-.48.42-.67.42-15.5,0-16.17-.3-.45-.76-.47-10.23-.47C222.41,231.12,219.72,231.19,219.45,231.41Z"/><path class="cls-1" d="M246.07,231.41c-.27.23-.36,2.41-.36,8.27s.09,8,.36,8.26,3,.3,10.29.3c9.47,0,9.93,0,10.23-.48.42-.67.42-15.5,0-16.17-.3-.45-.76-.47-10.23-.47C249,231.12,246.35,231.19,246.07,231.41Z"/><path class="cls-1" d="M272.7,231.41c-.27.23-.36,2.41-.36,8.27s.09,8,.36,8.26,2.94.3,10.11.3c9.74,0,9.77,0,10.22-.55s.49-1.66.49-8-.06-7.55-.49-8-.48-.54-10.22-.54C275.64,231.12,273,231.19,272.7,231.41Z"/><path class="cls-1" d="M299.33,231.41c-.27.23-.37,2.41-.37,8.27s.1,8,.37,8.26,2.93.3,10.1.3c8.69,0,9.78-.05,10.14-.43s.42-1.93.42-8.13-.09-7.82-.42-8.14-1.45-.42-10.14-.42C302.26,231.12,299.6,231.19,299.33,231.41Z"/><path class="cls-1" d="M325.86,231.54c-.33.32-.42,1.93-.42,8.14s.09,7.81.42,8.13,3.15.43,34.23.43c32.34,0,33.82,0,34.28-.45s.51-1.34.51-8.16c0-7.15,0-7.72-.54-8.09s-3.33-.42-34.31-.42S326.23,231.14,325.86,231.54Z"/><path class="cls-1" d="M8.35,252.73c-.66.57-.66.71-.66,8.13v7.6l.69.52c.7.54.73.54,15.07.54,12,0,14.46,0,15-.34s.57-.72.57-8.34,0-8-.57-8.34-3.06-.35-15-.35H9Z"/><path class="cls-1" d="M45,252.48c-.52.22-.55.89-.55,8.41,0,7.82,0,8.19.58,8.44.39.14,4.14.24,10.14.24,9.5,0,9.53,0,10-.54s.49-1.69.49-8.19c0-7.32,0-7.67-.61-8.14s-1-.49-10-.49C49.15,252.21,45.34,252.3,45,252.48Z"/><path class="cls-1" d="M71.67,252.48c-.52.22-.55.89-.55,8.41,0,7.82,0,8.19.58,8.44.39.14,5.62.24,15,.24,12.65,0,14.41-.05,14.83-.39s.48-1.44.48-8.29-.06-8-.48-8.29-2.18-.39-14.89-.39C77.39,252.21,72,252.3,71.67,252.48Z"/><path class="cls-1" d="M108,252.65c-.58.47-.61.82-.61,8.19s0,7.72.61,8.19,1,.49,85.9.49h85.33l.45-.54c.42-.47.48-1.69.48-8.19,0-7.32,0-7.67-.6-8.14s-1-.5-85.78-.5S108.64,252.15,108,252.65Z"/><path class="cls-1" d="M284.38,252.48c-.51.22-.54.89-.54,8.36,0,6,.09,8.21.36,8.44s2.93.29,10.1.29c8.69,0,9.78-.05,10.14-.42s.42-2,.42-8.31c0-7.57,0-7.94-.57-8.29s-2.36-.34-10-.34C288.46,252.21,284.68,252.3,284.38,252.48Z"/><path class="cls-1" d="M310.89,252.55c-.55.35-.58.72-.58,8.29,0,6.35.09,8,.42,8.31s1.46.42,10.14.42c7.17,0,9.84-.07,10.11-.29s.36-2.44.36-8.44c0-7.77,0-8.14-.57-8.39a96.8,96.8,0,0,0-9.93-.24C313.25,252.21,311.37,252.28,310.89,252.55Z"/><path class="cls-1" d="M337.51,252.55c-.54.35-.57.72-.57,8.34s0,8,.57,8.34,3.06.34,15,.34c12.74,0,14.49-.05,14.92-.39s.48-1.44.48-8.27c0-7.31,0-7.91-.54-8.28s-2-.42-14.92-.42C340.54,252.21,338,252.26,337.51,252.55Z"/><path class="cls-1" d="M374,252.65c-.45.4-.52,1.37-.52,8.29,0,7.24,0,7.84.55,8.21s1.66.42,10.11.42c8.86,0,9.56,0,10.16-.47s.67-.57.67-8.14v-7.69l-.7-.52c-.69-.54-.88-.54-10.26-.54C375.2,252.21,374.47,252.23,374,252.65Z"/></g><g id="ialh"><path class="cls-2" d="M230.94,188.49c-.27.22-.36,2.4-.36,8.29,0,6.94.06,8.06.49,8.38s1.75.4,10.07.4c8.93,0,9.65,0,10.11-.45s.51-1.36.51-8.31-.06-7.89-.48-8.21-1.76-.4-10.23-.4C233.88,188.19,231.22,188.26,230.94,188.49Z"/><path class="cls-3" d="M52.72,209.83c-.27.22-.36,2.4-.36,8.26,0,7.42,0,8,.55,8.39s1.63.42,10,.42c9,0,9.47,0,10-.5s.6-.82.6-8.14c0-6.5-.06-7.71-.48-8.19s-.49-.54-10.23-.54C55.66,209.53,53,209.6,52.72,209.83Z"/><path class="cls-4" d="M265.44,209.83c-.27.22-.36,2.4-.36,8.28,0,8,0,8,.66,8.39s2.06.4,10,.4c8.92,0,9.35,0,9.92-.5s.61-.82.61-8.26c0-7.22,0-7.82-.55-8.19s-1.66-.42-10.23-.42C268.34,209.53,265.71,209.6,265.44,209.83Z"/><path class="cls-5" d="M185.68,210.07c-.43.48-.49,1.69-.49,8.19,0,7.32,0,7.67.61,8.14s1,.5,10.08.5c8.8,0,9.53,0,10-.45s.51-1.36.51-8.39c0-5.85-.09-8-.36-8.23s-2.93-.3-10.1-.3C186.16,209.53,186.13,209.53,185.68,210.07Z"/></g><g id="text"><text class="cls-6" transform="translate(5.59 140.8)">data science studio</text><text class="cls-7" transform="translate(5.22 312.88)">http://dss-ialh.rbind.io</text></g></svg>